<svg width="26" height="26" viewBox="0 0 26 26" fill="none" xmlns="http://www.w3.org/2000/svg">
<path d="M0.581635 2.06076V3.33334L1.86577 3.36804L3.14991 3.40275L5.16289 8.23852L7.17587 13.0627L6.47017 14.1965C6.07683 14.8096 5.66035 15.5269 5.54466 15.7814C4.98936 16.9846 5.54466 18.4885 6.74782 19.0669C7.24528 19.3099 7.37254 19.3099 15.0195 19.3099H22.7938V18.0952V16.8804H15.3319C9.96396 16.8804 7.87 16.8457 7.87 16.7532C7.87 16.6838 8.17079 16.14 8.54099 15.5385L9.20041 14.4626L13.8974 14.451C19.1496 14.451 19.4504 14.4163 20.133 13.7106C20.6073 13.2247 25.1076 5.17278 25.1885 4.66375C25.2579 4.22414 24.9687 3.65726 24.5638 3.47216C24.3671 3.37961 21.4402 3.3449 15.0542 3.3449H5.81075L5.29015 2.09547L4.76955 0.857607L2.67559 0.822901L0.581635 0.799763V2.06076ZM21.5444 6.37594C21.3593 6.71143 20.5957 8.09969 19.8437 9.45325L18.4786 11.9058L13.9205 11.8827L9.35081 11.848L8.27491 9.25658C7.67333 7.83361 7.10645 6.46849 7.0139 6.22554L6.8288 5.77436H14.3601H21.8914L21.5444 6.37594Z" fill="white"/>
<path d="M6.84034 20.8833C5.31325 21.6468 5.02403 23.5326 6.25033 24.7473C7.46506 25.9736 9.35077 25.6844 10.1143 24.1573C10.6118 23.1392 10.4614 22.1212 9.66313 21.3345C8.87645 20.5362 7.8584 20.3858 6.84034 20.8833Z" fill="white"/>
<path d="M19.462 20.7098C19.2422 20.7792 18.8489 21.0568 18.5712 21.3229C17.7614 22.1327 17.611 23.1161 18.12 24.1573C18.8951 25.7075 20.9428 25.9851 22.0766 24.6779C23.7656 22.769 21.9493 20.0041 19.462 20.7098Z" fill="white"/>
</svg>
