<svg width="88" height="87" viewBox="0 0 88 87" fill="none" xmlns="http://www.w3.org/2000/svg">
<g clip-path="url(#clip0_607_360)">
<path d="M43.5662 6.36526C42.8731 6.80763 39.9521 9.0195 37.0312 11.2805L31.7833 15.3602H25.5949C19.753 15.3602 19.4064 15.4093 18.1192 16.589C16.931 17.6703 16.832 18.0636 16.832 22.0941V26.4195L14.1091 28.5331C12.6238 29.7127 11.3861 30.8432 11.3861 31.0398C11.3861 31.2365 12.6238 32.2687 14.1091 33.35C16.7825 35.267 16.832 35.267 16.832 37.8229C16.832 39.2483 16.733 40.428 16.5845 40.428C16.4359 40.428 14.5051 39.0026 12.2278 37.2331L8.16814 34.0381L8.01962 55.8127L7.87109 77.5381L9.40583 78.8653L10.8911 80.2415H45.0514H79.2117L80.697 78.9144L82.2317 77.5381L82.0832 56.0585L81.9347 34.5788L78.4691 37.2822C73.1718 41.411 73.2708 41.3619 73.2708 38.5602C73.2708 36.2009 73.3203 36.1026 76.2413 33.8907C77.875 32.6127 79.2117 31.4331 79.2117 31.2365C79.1622 30.9907 77.8255 29.8602 76.2413 28.6805L73.2708 26.4687V22.1432C73.2708 18.0636 73.1718 17.6703 71.9836 16.589C70.7459 15.4093 70.3499 15.3602 64.7555 15.3602H58.8641L52.4281 10.4449C48.8635 7.74153 45.695 5.52967 45.3484 5.52967C45.0514 5.52967 44.2098 5.92289 43.5662 6.36526ZM69.7063 31.4331L69.5577 44.0653L57.7749 53.0602C51.2894 58.0246 45.6455 62.0551 45.2494 62.0551C44.8039 62.0551 39.061 57.9263 32.4269 52.8144L20.347 43.6229V31.1873L20.2975 18.8009H45.0514H69.8053L69.7063 31.4331Z" fill="#D96B1A"/>
<path d="M42.2784 23.7653C38.9119 24.7483 35.9909 27.2551 34.2087 30.6958C32.7234 33.5958 32.5254 34.4805 32.5254 37.5771C32.5254 41.8534 33.5651 44.2619 36.585 46.9653C39.605 49.6686 44.1597 50.4551 48.7639 49.0788C50.3977 48.6364 50.7442 48.2924 50.7442 47.3093C50.7442 46.2771 50.5462 46.1297 49.5065 46.228C43.4666 46.9161 41.8328 46.867 39.902 45.7364C34.4562 42.5907 34.1591 33.4483 39.308 28.7297C43.9122 24.5025 50.8928 25.1907 53.5167 30.1059C55.2494 33.3008 54.4078 39.15 52.0314 40.428C50.5957 41.1653 50.2492 40.1822 50.6947 36.8398C51.6849 29.5161 51.7344 30.2042 50.1997 29.5653C48.2689 28.828 44.3577 29.3686 42.2784 30.5975C40.0011 32.0229 38.1198 35.3161 38.1198 37.9212C38.1198 40.2314 39.1594 42.5907 40.3476 43.0822C41.9814 43.672 44.9518 43.3771 46.14 42.4432C47.3282 41.4602 47.3777 41.4602 48.1698 42.4432C48.7639 43.0822 49.6551 43.3771 51.0413 43.3771C56.8832 43.3771 59.8537 33.6941 55.8435 27.8449C53.1701 24.011 47.4767 22.2415 42.2784 23.7653ZM47.7738 34.1364C47.1302 37.9703 45.0508 40.6246 42.9715 40.3297C42.0804 40.2314 41.7833 39.8381 41.6843 38.4619C41.3378 35.267 44.0607 32.1703 47.1797 32.072C47.9718 32.072 48.0708 32.3178 47.7738 34.1364Z" fill="#D96B1A"/>
</g>
<defs>
<clipPath id="clip0_607_360">
<rect width="88" height="87" fill="white"/>
</clipPath>
</defs>
</svg>
