<svg width="9" height="18" viewBox="0 0 9 18" fill="none" xmlns="http://www.w3.org/2000/svg">
<path d="M6.50257 0.995398C5.97154 1.01966 5.45824 1.13072 5.02987 1.31364C4.32058 1.61602 3.78208 2.11812 3.43304 2.80034C3.24359 3.17085 3.10919 3.61136 3.042 4.07893C2.99534 4.40184 2.99627 4.37104 2.99254 5.75135L2.9888 7.05139H1.72515H0.460571V8.50263V9.95387H1.72515H2.98974V13.4284V16.9021L3.18386 16.9282C3.72795 17.001 3.93327 17.0131 4.55297 17.0131C4.96827 17.0131 5.11666 17.0103 5.27625 16.9973C5.4937 16.9795 5.81755 16.9441 6.0042 16.9179L6.12086 16.9011L6.12366 13.4275L6.12553 9.95387H7.28185H8.43817L8.44377 9.92867C8.4559 9.86987 8.87868 7.09712 8.87868 7.07566V7.05139H7.5021H6.12553V6.04439C6.12553 4.94967 6.12646 4.931 6.17779 4.71822C6.30658 4.18998 6.66869 3.83814 7.21279 3.71215C7.42371 3.66269 7.4601 3.66082 8.25619 3.65709L9 3.65335V2.41677C9 1.73735 8.99814 1.18112 8.99627 1.18112C8.9944 1.18112 8.87588 1.16432 8.73215 1.14379C8.14046 1.05979 7.61036 1.0122 7.06346 0.994463C6.75735 0.984198 6.73682 0.984198 6.50257 0.995398Z" fill="white"/>
</svg>
