<svg width="21" height="21" viewBox="0 0 21 21" fill="none" xmlns="http://www.w3.org/2000/svg">
<path d="M20.1522 18.9482L14.9929 13.7889C16.1537 12.3401 16.7849 10.5383 16.782 8.68182C16.782 4.16318 13.119 0.5 8.60017 0.5C4.08154 0.5 0.418365 4.16318 0.418365 8.68182C0.418365 13.2005 4.08154 16.8636 8.60017 16.8636C10.532 16.8636 12.3074 16.1941 13.7072 15.0743L18.8665 20.2336C18.9508 20.3182 19.051 20.3852 19.1613 20.4309C19.2716 20.4767 19.3898 20.5001 19.5092 20.5C19.689 20.5 19.8648 20.4467 20.0143 20.3468C20.1638 20.2469 20.2803 20.105 20.3491 19.9389C20.4179 19.7728 20.436 19.59 20.4009 19.4137C20.3659 19.2373 20.2793 19.0753 20.1522 18.9482ZM8.60017 15.0455C5.08563 15.0455 2.23654 12.1964 2.23654 8.68182C2.23654 5.16727 5.08563 2.31818 8.60017 2.31818C12.1149 2.31818 14.9638 5.16727 14.9638 8.68182C14.9638 12.1964 12.1149 15.0455 8.60017 15.0455Z" fill="white"/>
</svg>
