<svg width="203" height="51" viewBox="0 0 203 51" fill="none" xmlns="http://www.w3.org/2000/svg">
<path d="M21.614 5.28354C21.7112 5.55399 21.8409 5.75683 21.8949 5.7182C21.949 5.68922 21.9598 5.7182 21.9165 5.78581C21.8733 5.84376 21.9165 6.21081 22.0138 6.59717C22.2731 7.56308 22.2623 9.37899 22.003 10.3352C21.8949 10.7313 21.7977 11.0983 21.7977 11.1563C21.7977 11.2045 21.7653 11.2722 21.7329 11.3011C21.7004 11.3301 21.5384 11.6489 21.3547 12.0256C21.1818 12.3926 20.782 13.0688 20.4579 13.5227C20.1445 13.9767 19.8744 14.392 19.8744 14.4597C19.8744 14.5273 19.842 14.5563 19.7987 14.5369C19.7339 14.508 19.4854 14.8074 17.9403 16.7972C16.0494 19.2023 15.4875 20.9795 15.9737 22.9114C16.071 23.2784 16.2655 23.8097 16.3951 24.0898L16.6545 24.5824L16.6653 23.9545C16.6761 22.3801 17.4973 20.7864 19.6043 18.2364C19.9176 17.8597 20.1013 17.5409 20.0581 17.4733C20.0149 17.4057 20.0257 17.3864 20.0905 17.4153C20.2958 17.5313 22.0894 15.0199 22.7053 13.7352C23.3104 12.4989 23.5049 11.6778 23.5157 10.3352C23.5265 8.63524 23.1483 7.37956 22.1435 5.78581C21.5384 4.8199 21.3871 4.67501 21.614 5.28354Z" fill="white"/>
<path d="M27.157 11.417C27.1354 12.1898 26.8112 13.2136 26.2926 14.1506C25.6767 15.2614 24.8771 16.1983 23.0619 17.908C22.7809 18.1784 22.6513 18.3233 22.7701 18.246C22.9646 18.1205 22.9754 18.1205 22.835 18.275C22.7593 18.3716 22.6513 18.4295 22.6081 18.4006C22.4892 18.333 21.8409 18.9801 21.9273 19.0767C21.9814 19.1153 21.9598 19.125 21.8949 19.096C21.614 18.9511 20.0148 20.7381 19.3773 21.9261L18.8803 22.8437V24.0511C18.8803 25.0074 18.9235 25.3744 19.0964 25.7898L19.3017 26.321L19.3881 25.6449C19.6799 23.433 20.6848 21.704 22.9754 19.521C23.667 18.8739 24.1964 18.2847 24.1532 18.2267C24.1208 18.1784 24.1424 18.1591 24.1964 18.1881C24.3369 18.2653 24.5854 18.0239 24.4665 17.9176C24.4233 17.8693 24.4449 17.8597 24.5098 17.8983C24.6826 17.9852 25.9036 16.7682 25.7956 16.604C25.7631 16.5653 25.7956 16.4977 25.8604 16.4591C25.9468 16.4205 25.9576 16.4301 25.9144 16.4977C25.8712 16.5653 25.8604 16.6136 25.882 16.6136C26.0225 16.6136 26.8545 15.2131 26.8653 14.9716C26.8761 14.8267 26.9085 14.7205 26.9409 14.7398C27.211 14.8847 27.4595 12.5472 27.2759 11.5909C27.1894 11.1273 27.1678 11.108 27.157 11.417Z" fill="white"/>
<path d="M22.3704 21.4046C22.1435 21.6364 21.2034 23.008 21.2034 23.1045C21.2034 23.1432 21.5276 23.1818 21.9382 23.1818C23.613 23.1818 27.0382 23.4909 28.9291 23.8193C33.0458 24.5341 35.3581 25.5869 35.3581 26.7557C35.3581 28.3688 30.7659 29.7886 24.1208 30.233C22.2515 30.3585 17.3568 30.3585 15.4767 30.233C10.2471 29.8852 6.0871 28.9 4.72566 27.683C4.00172 27.0261 4.00172 26.4852 4.72566 25.8284C5.88181 24.7949 8.88562 23.9642 13.2509 23.4716C14.2017 23.3653 14.9905 23.2591 15.0229 23.2398C15.0445 23.2205 15.0121 22.95 14.9473 22.6409C14.8824 22.3318 14.8284 21.9165 14.8284 21.7136C14.8284 21.2693 14.9257 21.279 12.6242 21.5398C7.02715 22.1966 2.87799 23.5199 1.1816 25.2102C0.500876 25.8864 0.414435 26.1665 0.490071 27.6153C0.619732 30.3585 1.89473 34.3574 3.58033 37.3517C7.39452 44.1517 14.299 47.3972 23.7966 46.8466C24.8988 46.779 25.8712 46.6921 25.9577 46.6438C26.0765 46.5858 26.0333 46.5665 25.8064 46.5568C25.1905 46.5568 22.8566 46.1608 21.2574 45.7841C16.6545 44.7216 13.4238 43.1761 10.6577 40.7131C9.19897 39.4091 8.12927 38.0858 7.30808 36.5307C6.77863 35.5455 5.93583 33.3722 6.00066 33.1886C6.02227 33.1307 6.24918 33.4494 6.5085 33.8938C8.53986 37.5063 11.6301 40.346 15.3255 41.9977C20.4471 44.2966 26.0441 43.9585 30.6038 41.0705C33.9534 38.9455 36.5466 35.5068 38.2322 30.9381C38.913 29.0835 38.8805 29.1222 39.8746 29.267C41.0956 29.4506 41.7439 30.146 41.8195 31.392C41.8844 32.3869 41.6034 33.0341 40.7606 33.8358C40.0583 34.5119 39.2479 34.9852 38.2538 35.304L37.5731 35.5261L36.7303 36.7528L35.8983 37.9796L36.3521 37.9119C37.1517 37.7864 39.0318 37.1875 40.0475 36.7335C41.3117 36.1733 42.1977 35.6034 42.9432 34.8886C43.6564 34.1932 44.013 33.6619 44.3263 32.8409C44.6505 31.9716 44.5964 30.1847 44.2291 29.3347C43.8833 28.5523 43.2134 27.8568 42.4354 27.4608C41.6466 27.0744 41.3009 26.9778 40.1015 26.8426L39.1615 26.7364L39.0966 26.3693C38.8265 24.8625 36.0172 23.317 31.7924 22.3608C29.3721 21.8102 26.2818 21.3949 23.9155 21.2886C22.6729 21.2307 22.5432 21.2403 22.3704 21.4046Z" fill="white"/>
<path d="M62.17 33.298C61.9447 33.1073 61.7887 32.8733 61.702 32.596C61.6153 32.3187 61.572 32.0153 61.572 31.686C61.572 31.478 61.5807 31.27 61.598 31.062C61.6327 30.8367 61.6673 30.6113 61.702 30.386C61.8407 29.6927 62.0747 28.8693 62.404 27.916C62.7507 26.9627 63.1407 25.966 63.574 24.926C64.0247 23.886 64.4753 22.8807 64.926 21.91C65.394 20.922 65.81 20.0553 66.174 19.31C66.5553 18.5473 66.8413 17.984 67.032 17.62C67.1013 17.4813 67.162 17.3513 67.214 17.23C67.2833 17.1087 67.3527 16.996 67.422 16.892L66.486 17.022C65.706 17.126 64.9 17.2907 64.068 17.516C63.2533 17.7413 62.5167 18.036 61.858 18.4C61.2167 18.7467 60.7487 19.1713 60.454 19.674C60.4367 19.726 60.402 19.752 60.35 19.752C60.3153 19.752 60.2893 19.7173 60.272 19.648C60.2373 19.5787 60.2287 19.5007 60.246 19.414C60.4193 18.9633 60.636 18.53 60.896 18.114C61.156 17.698 61.4073 17.3687 61.65 17.126C62.0313 16.7273 62.5513 16.4413 63.21 16.268C63.8687 16.0947 64.5447 15.982 65.238 15.93C65.9487 15.878 66.5553 15.852 67.058 15.852H72.18C73.376 15.852 74.3293 16.034 75.04 16.398C75.768 16.762 76.288 17.2473 76.6 17.854C76.912 18.4433 77.0333 19.076 76.964 19.752C76.8947 20.48 76.6867 21.1127 76.34 21.65C75.9933 22.1873 75.56 22.6467 75.04 23.028C74.5373 23.392 74.0087 23.6867 73.454 23.912C72.9167 24.12 72.414 24.276 71.946 24.38C73.402 24.6573 74.442 25.134 75.066 25.81C75.69 26.486 76.002 27.292 76.002 28.228C76.002 28.9733 75.82 29.6753 75.456 30.334C75.1093 30.9753 74.6327 31.556 74.026 32.076C73.506 32.5267 72.8213 32.934 71.972 33.298C71.1227 33.6447 70.204 33.922 69.216 34.13C68.228 34.338 67.2487 34.442 66.278 34.442C65.4633 34.442 64.692 34.3467 63.964 34.156C63.236 33.9827 62.638 33.6967 62.17 33.298ZM65.342 33.298C65.5847 33.3327 65.8273 33.3587 66.07 33.376C66.3127 33.3933 66.5553 33.402 66.798 33.402C67.6473 33.402 68.4793 33.2807 69.294 33.038C70.1087 32.778 70.8193 32.3707 71.426 31.816C72.05 31.2613 72.492 30.5333 72.752 29.632C72.908 29.1293 72.986 28.618 72.986 28.098C72.986 27.2833 72.778 26.5553 72.362 25.914C71.9633 25.2553 71.3307 24.874 70.464 24.77C70.2733 24.822 69.9873 24.8827 69.606 24.952C69.2247 25.0213 68.826 25.082 68.41 25.134C67.994 25.186 67.6387 25.212 67.344 25.212C67.0667 25.212 66.928 25.1513 66.928 25.03C66.928 24.926 67.006 24.8047 67.162 24.666C67.318 24.51 67.4913 24.38 67.682 24.276C67.8727 24.1547 68.0287 24.0853 68.15 24.068C68.462 24.016 68.826 23.99 69.242 23.99C69.4673 23.99 69.6927 23.9987 69.918 24.016C70.1607 24.0333 70.412 24.0593 70.672 24.094C71.2267 23.9207 71.686 23.6867 72.05 23.392C72.414 23.0973 72.726 22.82 72.986 22.56C73.402 22.1267 73.7227 21.6327 73.948 21.078C74.1733 20.506 74.286 19.9513 74.286 19.414C74.286 18.7033 74.1127 18.1573 73.766 17.776C73.4367 17.3773 72.9947 17.0913 72.44 16.918C71.8853 16.7447 71.2873 16.6493 70.646 16.632C70.334 17.048 70.0047 17.542 69.658 18.114C69.3287 18.6687 69.0167 19.2407 68.722 19.83C68.4273 20.4193 68.1673 20.9653 67.942 21.468C67.4567 22.508 66.9453 23.6433 66.408 24.874C65.888 26.1047 65.4547 27.3007 65.108 28.462C64.9347 28.9993 64.7613 29.58 64.588 30.204C64.432 30.8107 64.354 31.3567 64.354 31.842C64.354 32.2233 64.4233 32.544 64.562 32.804C64.7007 33.064 64.9607 33.2287 65.342 33.298ZM84.9214 34.156C84.3841 34.156 84.0114 33.948 83.8034 33.532C83.6128 33.116 83.5174 32.6047 83.5174 31.998C83.5174 31.4433 83.5694 30.8973 83.6734 30.36C83.7254 30.1173 83.7774 29.8747 83.8294 29.632C83.8988 29.372 83.9768 29.1033 84.0634 28.826C83.7688 29.3633 83.4568 29.8833 83.1274 30.386C82.8154 30.8887 82.4948 31.3307 82.1654 31.712C81.6108 32.388 81.0214 32.9513 80.3974 33.402C79.7908 33.8527 79.1841 34.078 78.5774 34.078C78.0921 34.078 77.6761 33.9047 77.3294 33.558C77.0001 33.194 76.8354 32.57 76.8354 31.686C76.8354 30.7847 76.9914 29.8573 77.3034 28.904C77.6154 27.9507 78.0488 27.0667 78.6034 26.252C79.1754 25.42 79.8428 24.7527 80.6054 24.25C81.3854 23.7473 82.2348 23.496 83.1534 23.496C83.4481 23.496 83.7688 23.5393 84.1154 23.626C84.4621 23.7127 84.7828 23.8773 85.0774 24.12C85.3721 24.3453 85.5714 24.666 85.6754 25.082C85.6928 25.0473 85.7101 25.0213 85.7274 25.004C85.7621 24.9867 85.7881 24.9693 85.8054 24.952C86.0481 24.5707 86.3254 24.25 86.6374 23.99C86.9494 23.73 87.2961 23.6 87.6774 23.6C87.8681 23.6 88.1368 23.6087 88.4834 23.626C88.8301 23.6433 89.0814 23.6433 89.2374 23.626C89.1508 23.6953 89.0294 23.834 88.8734 24.042C88.7348 24.25 88.6048 24.4667 88.4834 24.692C88.3621 24.9 88.2668 25.0647 88.1974 25.186C87.7294 26.0873 87.3048 26.98 86.9234 27.864C86.5421 28.748 86.2474 29.5973 86.0394 30.412C85.9874 30.5853 85.9528 30.75 85.9354 30.906C85.9181 31.0447 85.9094 31.1833 85.9094 31.322C85.9094 31.7727 86.0568 31.998 86.3514 31.998C86.6288 31.998 86.9754 31.8247 87.3914 31.478C87.9981 30.9927 88.5268 30.386 88.9774 29.658C89.4454 28.93 89.8528 28.228 90.1994 27.552C90.2688 27.4307 90.3294 27.37 90.3814 27.37C90.4854 27.37 90.5374 27.5173 90.5374 27.812C90.5374 27.9507 90.5114 28.1067 90.4594 28.28C90.4248 28.4533 90.3641 28.618 90.2774 28.774C90.0348 29.19 89.7141 29.7013 89.3154 30.308C88.9341 30.9147 88.5008 31.5127 88.0154 32.102C87.5301 32.674 87.0188 33.1593 86.4814 33.558C85.9614 33.9567 85.4414 34.156 84.9214 34.156ZM79.7474 31.894C79.7994 31.9113 79.8774 31.92 79.9814 31.92C80.3108 31.92 80.6661 31.7813 81.0474 31.504C81.4288 31.2267 81.8101 30.8713 82.1914 30.438C82.5728 29.9873 82.9108 29.5367 83.2054 29.086C83.9681 27.8727 84.5314 26.9627 84.8954 26.356C85.2594 25.7493 85.4674 25.4027 85.5194 25.316C85.4328 25.0213 85.2768 24.8047 85.0514 24.666C84.8434 24.5273 84.5921 24.458 84.2974 24.458C83.9161 24.458 83.5088 24.562 83.0754 24.77C82.6594 24.978 82.3041 25.2293 82.0094 25.524C81.5588 25.9747 81.1254 26.5553 80.7094 27.266C80.3108 27.9767 79.9814 28.6787 79.7214 29.372C79.4788 30.0653 79.3574 30.646 79.3574 31.114C79.3574 31.5473 79.4874 31.8073 79.7474 31.894ZM92.4785 34.52C91.8892 34.52 91.3345 34.442 90.8145 34.286C90.2945 34.13 89.8698 33.8873 89.5405 33.558C89.2112 33.2287 89.0465 32.8127 89.0465 32.31C89.0465 31.9287 89.1592 31.556 89.3845 31.192C89.6272 30.828 89.9652 30.646 90.3985 30.646C90.5892 30.646 90.7625 30.6893 90.9185 30.776C91.0745 30.8627 91.1785 30.9753 91.2305 31.114C91.2132 31.1313 91.1698 31.192 91.1005 31.296C91.0312 31.3827 90.9878 31.4433 90.9705 31.478C90.8145 31.79 90.7365 32.076 90.7365 32.336C90.7365 32.7 90.8665 32.9947 91.1265 33.22C91.4038 33.4453 91.7592 33.558 92.1925 33.558C92.7645 33.5407 93.2585 33.3413 93.6745 32.96C94.1078 32.5613 94.3245 32.0933 94.3245 31.556C94.3245 31.244 94.2552 30.9493 94.1165 30.672C93.8912 30.204 93.5878 29.8053 93.2065 29.476C92.8425 29.1293 92.4872 28.7827 92.1405 28.436C91.8112 28.0893 91.5685 27.6733 91.4125 27.188C91.3432 26.9627 91.3085 26.6853 91.3085 26.356C91.3085 26.0267 91.3518 25.706 91.4385 25.394C91.5252 25.0647 91.6552 24.7873 91.8285 24.562C92.0712 24.2327 92.4352 23.9293 92.9205 23.652C93.5272 23.3227 94.2378 23.158 95.0525 23.158C95.5898 23.158 96.0665 23.2273 96.4825 23.366C96.7945 23.47 97.0632 23.6433 97.2885 23.886C97.5312 24.1113 97.6525 24.4147 97.6525 24.796C97.6525 25.2293 97.5138 25.6453 97.2365 26.044C96.9765 26.4253 96.5952 26.6593 96.0925 26.746C95.7805 26.7807 95.5032 26.7287 95.2605 26.59C95.0178 26.434 94.9312 26.148 95.0005 25.732C95.4685 25.628 95.8065 25.4373 96.0145 25.16C96.1185 25.004 96.1705 24.848 96.1705 24.692C96.1705 24.3973 96.0492 24.198 95.8065 24.094C95.5812 23.9727 95.3645 23.912 95.1565 23.912C94.8965 23.912 94.6452 23.9467 94.4025 24.016C94.1772 24.068 93.9692 24.1633 93.7785 24.302C93.3972 24.6313 93.2065 25.0127 93.2065 25.446C93.2065 25.5153 93.2152 25.5933 93.2325 25.68C93.2672 25.7667 93.2932 25.8533 93.3105 25.94C93.3972 26.1653 93.5272 26.3733 93.7005 26.564C93.8738 26.7547 94.0472 26.9193 94.2205 27.058C94.6538 27.37 95.0958 27.708 95.5465 28.072C96.0145 28.436 96.3612 28.878 96.5865 29.398C96.7598 29.762 96.8465 30.1347 96.8465 30.516C96.8465 31.036 96.7165 31.5127 96.4565 31.946C96.1965 32.362 95.9018 32.6913 95.5725 32.934C96.1445 32.6913 96.6992 32.2667 97.2365 31.66C97.7912 31.036 98.2678 30.4207 98.6665 29.814C98.9265 29.4153 99.1605 29.0427 99.3685 28.696C99.5938 28.332 99.8192 27.9333 100.044 27.5C100.114 27.3787 100.174 27.318 100.226 27.318C100.33 27.318 100.382 27.4653 100.382 27.76C100.382 27.8813 100.356 28.0287 100.304 28.202C100.27 28.3753 100.209 28.5487 100.122 28.722C99.8105 29.242 99.5158 29.7273 99.2385 30.178C98.9612 30.6113 98.6232 31.088 98.2245 31.608C97.4272 32.6653 96.5778 33.4193 95.6765 33.87C94.7752 34.3033 93.7092 34.52 92.4785 34.52ZM106.023 34.156C105.433 34.156 105.026 33.9827 104.801 33.636C104.593 33.272 104.489 32.856 104.489 32.388C104.489 31.816 104.601 31.1313 104.827 30.334C105.052 29.5193 105.312 28.7047 105.607 27.89C105.919 27.058 106.196 26.3213 106.439 25.68C106.508 25.524 106.543 25.3593 106.543 25.186C106.543 24.9953 106.482 24.8567 106.361 24.77C106.239 24.6833 106.083 24.64 105.893 24.64C105.615 24.64 105.303 24.7267 104.957 24.9C104.419 25.1773 103.908 25.6193 103.423 26.226C102.937 26.8327 102.547 27.4653 102.253 28.124C101.923 28.8693 101.629 29.6147 101.369 30.36C101.109 31.1053 100.901 31.712 100.745 32.18C100.641 32.4747 100.545 32.778 100.459 33.09C100.372 33.402 100.285 33.7053 100.199 34H97.6767C97.6767 34 97.7373 33.7833 97.8587 33.35C97.9627 32.9167 98.1013 32.4833 98.2747 32.05C98.5693 31.2873 98.864 30.5247 99.1587 29.762C99.4707 28.9993 99.7393 28.3233 99.9647 27.734C100.034 27.5607 100.138 27.24 100.277 26.772C100.433 26.2867 100.571 25.784 100.693 25.264C100.831 24.744 100.901 24.3193 100.901 23.99C100.901 23.7993 100.875 23.6693 100.823 23.6C100.979 23.6 101.152 23.6 101.343 23.6C101.551 23.5827 101.741 23.574 101.915 23.574C102.157 23.574 102.383 23.5827 102.591 23.6C102.816 23.6173 102.963 23.6607 103.033 23.73C103.241 23.886 103.345 24.1113 103.345 24.406C103.345 24.614 103.301 24.822 103.215 25.03C103.145 25.238 103.093 25.4113 103.059 25.55C103.301 25.3247 103.553 25.108 103.813 24.9C104.073 24.692 104.471 24.4233 105.009 24.094C105.321 23.9033 105.711 23.7473 106.179 23.626C106.647 23.5047 107.071 23.444 107.453 23.444C108.441 23.444 108.935 23.9033 108.935 24.822C108.935 24.978 108.917 25.1513 108.883 25.342C108.865 25.5327 108.813 25.7407 108.727 25.966C108.64 26.2433 108.501 26.6247 108.311 27.11C108.12 27.5953 107.921 28.1153 107.713 28.67C107.522 29.2073 107.357 29.7187 107.219 30.204C107.08 30.6893 107.011 31.0793 107.011 31.374C107.011 31.79 107.167 31.998 107.479 31.998C107.756 31.998 108.103 31.8247 108.519 31.478C108.917 31.1487 109.264 30.7933 109.559 30.412C109.923 29.9613 110.252 29.4847 110.547 28.982C110.859 28.462 111.127 27.9853 111.353 27.552C111.439 27.4133 111.5 27.344 111.535 27.344C111.639 27.344 111.691 27.4913 111.691 27.786C111.691 27.9247 111.665 28.0893 111.613 28.28C111.578 28.4533 111.517 28.618 111.431 28.774C111.188 29.19 110.902 29.6493 110.573 30.152C110.243 30.6547 109.905 31.14 109.559 31.608C109.316 31.9373 108.995 32.3013 108.597 32.7C108.198 33.0987 107.773 33.4453 107.323 33.74C106.872 34.0173 106.439 34.156 106.023 34.156ZM111.289 39.226C110.856 39.226 110.396 39.1567 109.911 39.018C109.443 38.8967 109.053 38.68 108.741 38.368C108.412 38.056 108.247 37.64 108.247 37.12C108.247 36.756 108.36 36.418 108.585 36.106C108.81 35.794 109.122 35.638 109.521 35.638C109.764 35.638 109.989 35.6987 110.197 35.82C110.405 35.9587 110.544 36.1233 110.613 36.314C110.578 36.3313 110.526 36.3833 110.457 36.47C110.388 36.5567 110.344 36.6173 110.327 36.652C110.206 36.8947 110.145 37.146 110.145 37.406C110.145 37.7353 110.258 37.9953 110.483 38.186C110.726 38.394 111.029 38.498 111.393 38.498C111.861 38.498 112.346 38.3247 112.849 37.978C113.404 37.5793 113.837 37.0593 114.149 36.418C114.478 35.794 114.738 35.2307 114.929 34.728L116.411 30.776C116.099 31.1573 115.77 31.5473 115.423 31.946C115.094 32.3273 114.886 32.5613 114.799 32.648C114.14 33.3067 113.551 33.7227 113.031 33.896C112.511 34.0693 112.052 34.156 111.653 34.156C111.237 34.156 110.882 33.974 110.587 33.61C110.31 33.246 110.171 32.7173 110.171 32.024C110.171 31.6773 110.223 31.2353 110.327 30.698C110.431 30.1607 110.578 29.5887 110.769 28.982C110.96 28.358 111.176 27.7513 111.419 27.162C111.679 26.5553 111.956 26.018 112.251 25.55C112.702 24.8393 113.204 24.38 113.759 24.172C114.314 23.964 115.016 23.86 115.865 23.86C115.934 23.86 115.969 23.8947 115.969 23.964C115.969 24.0333 115.917 24.12 115.813 24.224C115.57 24.432 115.276 24.796 114.929 25.316C114.582 25.836 114.244 26.408 113.915 27.032C113.603 27.656 113.343 28.254 113.135 28.826C112.996 29.2247 112.858 29.6927 112.719 30.23C112.598 30.7673 112.537 31.2353 112.537 31.634C112.537 31.9113 112.572 32.1367 112.641 32.31C112.728 32.466 112.858 32.544 113.031 32.544C113.308 32.544 113.69 32.336 114.175 31.92C114.903 31.3133 115.562 30.568 116.151 29.684C116.74 28.8 117.243 27.8813 117.659 26.928C117.902 26.3733 118.101 25.9053 118.257 25.524C118.413 25.1253 118.586 24.8047 118.777 24.562C118.968 24.3193 119.236 24.146 119.583 24.042C119.93 23.9207 120.398 23.86 120.987 23.86H122.053C121.724 24.068 121.394 24.458 121.065 25.03C120.736 25.5847 120.424 26.2433 120.129 27.006C119.904 27.5607 119.67 28.1673 119.427 28.826C119.202 29.4847 118.968 30.152 118.725 30.828C118.517 31.452 118.292 32.1367 118.049 32.882C117.806 33.61 117.529 34.3207 117.217 35.014C116.905 35.7247 116.541 36.34 116.125 36.86C115.536 37.588 114.816 38.16 113.967 38.576C113.118 39.0093 112.225 39.226 111.289 39.226ZM129.101 34.156C128.564 34.156 128.191 33.948 127.983 33.532C127.792 33.116 127.697 32.6047 127.697 31.998C127.697 31.4433 127.749 30.8973 127.853 30.36C127.905 30.1173 127.957 29.8747 128.009 29.632C128.078 29.372 128.156 29.1033 128.243 28.826C127.948 29.3633 127.636 29.8833 127.307 30.386C126.995 30.8887 126.674 31.3307 126.345 31.712C125.79 32.388 125.201 32.9513 124.577 33.402C123.97 33.8527 123.364 34.078 122.757 34.078C122.272 34.078 121.856 33.9047 121.509 33.558C121.18 33.194 121.015 32.57 121.015 31.686C121.015 30.7847 121.171 29.8573 121.483 28.904C121.795 27.9507 122.228 27.0667 122.783 26.252C123.355 25.42 124.022 24.7527 124.785 24.25C125.565 23.7473 126.414 23.496 127.333 23.496C127.628 23.496 127.948 23.5393 128.295 23.626C128.642 23.7127 128.962 23.8773 129.257 24.12C129.552 24.3453 129.751 24.666 129.855 25.082C129.872 25.0473 129.89 25.0213 129.907 25.004C129.942 24.9867 129.968 24.9693 129.985 24.952C130.228 24.5707 130.505 24.25 130.817 23.99C131.129 23.73 131.476 23.6 131.857 23.6C132.048 23.6 132.316 23.6087 132.663 23.626C133.01 23.6433 133.261 23.6433 133.417 23.626C133.33 23.6953 133.209 23.834 133.053 24.042C132.914 24.25 132.784 24.4667 132.663 24.692C132.542 24.9 132.446 25.0647 132.377 25.186C131.909 26.0873 131.484 26.98 131.103 27.864C130.722 28.748 130.427 29.5973 130.219 30.412C130.167 30.5853 130.132 30.75 130.115 30.906C130.098 31.0447 130.089 31.1833 130.089 31.322C130.089 31.7727 130.236 31.998 130.531 31.998C130.808 31.998 131.155 31.8247 131.571 31.478C132.178 30.9927 132.706 30.386 133.157 29.658C133.625 28.93 134.032 28.228 134.379 27.552C134.448 27.4307 134.509 27.37 134.561 27.37C134.665 27.37 134.717 27.5173 134.717 27.812C134.717 27.9507 134.691 28.1067 134.639 28.28C134.604 28.4533 134.544 28.618 134.457 28.774C134.214 29.19 133.894 29.7013 133.495 30.308C133.114 30.9147 132.68 31.5127 132.195 32.102C131.71 32.674 131.198 33.1593 130.661 33.558C130.141 33.9567 129.621 34.156 129.101 34.156ZM123.927 31.894C123.979 31.9113 124.057 31.92 124.161 31.92C124.49 31.92 124.846 31.7813 125.227 31.504C125.608 31.2267 125.99 30.8713 126.371 30.438C126.752 29.9873 127.09 29.5367 127.385 29.086C128.148 27.8727 128.711 26.9627 129.075 26.356C129.439 25.7493 129.647 25.4027 129.699 25.316C129.612 25.0213 129.456 24.8047 129.231 24.666C129.023 24.5273 128.772 24.458 128.477 24.458C128.096 24.458 127.688 24.562 127.255 24.77C126.839 24.978 126.484 25.2293 126.189 25.524C125.738 25.9747 125.305 26.5553 124.889 27.266C124.49 27.9767 124.161 28.6787 123.901 29.372C123.658 30.0653 123.537 30.646 123.537 31.114C123.537 31.5473 123.667 31.8073 123.927 31.894ZM135.566 34.156C135.064 34.156 134.682 33.9567 134.422 33.558C134.301 33.3673 134.214 33.142 134.162 32.882C134.11 32.622 134.084 32.3533 134.084 32.076C134.084 31.7987 134.102 31.5213 134.136 31.244C134.171 30.9493 134.214 30.6633 134.266 30.386C134.353 29.9353 134.448 29.528 134.552 29.164C134.674 28.7827 134.795 28.4187 134.916 28.072V28.046C134.778 28.306 134.604 28.592 134.396 28.904C134.188 29.1987 134.041 29.4153 133.954 29.554C133.833 29.7447 133.738 29.84 133.668 29.84C133.599 29.84 133.564 29.762 133.564 29.606C133.564 29.2593 133.668 28.878 133.876 28.462C134.015 28.1847 134.206 27.8293 134.448 27.396C134.691 26.9453 134.942 26.46 135.202 25.94C135.462 25.42 135.688 24.9173 135.878 24.432H134.136C134.05 24.432 134.032 24.3627 134.084 24.224C134.136 24.0853 134.214 23.9553 134.318 23.834C134.422 23.6953 134.5 23.626 134.552 23.626H136.528C136.719 23.1753 136.936 22.69 137.178 22.17C137.438 21.65 137.724 21.1647 138.036 20.714C138.366 20.246 138.721 19.8647 139.102 19.57C139.484 19.2753 139.891 19.128 140.324 19.128C140.515 19.128 140.749 19.128 141.026 19.128C141.321 19.128 141.503 19.1193 141.572 19.102C141.208 19.3447 140.784 19.83 140.298 20.558C139.813 21.2687 139.284 22.2913 138.712 23.626H141.338C141.39 23.626 141.373 23.6953 141.286 23.834C141.2 23.9553 141.087 24.0853 140.948 24.224C140.827 24.3627 140.706 24.432 140.584 24.432H138.348C138.123 25.004 137.872 25.628 137.594 26.304C137.334 26.98 137.092 27.6473 136.866 28.306C136.658 28.9473 136.502 29.5367 136.398 30.074C136.329 30.4033 136.294 30.7067 136.294 30.984C136.294 31.6427 136.502 31.972 136.918 31.972C137.196 31.972 137.525 31.8333 137.906 31.556C138.288 31.2787 138.669 30.8973 139.05 30.412C139.397 29.9613 139.726 29.476 140.038 28.956C140.368 28.436 140.645 27.9593 140.87 27.526C140.94 27.4047 141 27.344 141.052 27.344C141.156 27.344 141.208 27.4827 141.208 27.76C141.208 27.8987 141.182 28.0633 141.13 28.254C141.096 28.4273 141.026 28.6007 140.922 28.774C140.68 29.19 140.394 29.6493 140.064 30.152C139.735 30.6373 139.397 31.1227 139.05 31.608C138.808 31.92 138.487 32.2753 138.088 32.674C137.707 33.0727 137.291 33.4193 136.84 33.714C136.407 34.0087 135.982 34.156 135.566 34.156ZM148.016 33.298C147.79 33.1073 147.634 32.8733 147.548 32.596C147.461 32.3187 147.418 32.0153 147.418 31.686C147.418 31.478 147.426 31.27 147.444 31.062C147.478 30.8367 147.513 30.6113 147.548 30.386C147.686 29.6927 147.92 28.8693 148.25 27.916C148.596 26.9627 148.986 25.966 149.42 24.926C149.87 23.886 150.321 22.8807 150.772 21.91C151.24 20.922 151.656 20.0553 152.02 19.31C152.401 18.5473 152.687 17.984 152.878 17.62C152.947 17.4813 153.008 17.3513 153.06 17.23C153.129 17.1087 153.198 16.996 153.268 16.892L152.332 17.022C151.552 17.126 150.746 17.2907 149.914 17.516C149.099 17.7413 148.362 18.036 147.704 18.4C147.062 18.7467 146.594 19.1713 146.3 19.674C146.282 19.726 146.248 19.752 146.196 19.752C146.161 19.752 146.135 19.7173 146.118 19.648C146.083 19.5787 146.074 19.5007 146.092 19.414C146.265 18.9633 146.482 18.53 146.742 18.114C147.002 17.698 147.253 17.3687 147.496 17.126C147.877 16.7273 148.397 16.4413 149.056 16.268C149.714 16.0947 150.39 15.982 151.084 15.93C151.794 15.878 152.401 15.852 152.904 15.852H158.026C159.222 15.852 160.175 16.034 160.886 16.398C161.614 16.762 162.134 17.2473 162.446 17.854C162.758 18.4433 162.879 19.076 162.81 19.752C162.74 20.48 162.532 21.1127 162.186 21.65C161.839 22.1873 161.406 22.6467 160.886 23.028C160.383 23.392 159.854 23.6867 159.3 23.912C158.762 24.12 158.26 24.276 157.792 24.38C159.248 24.6573 160.288 25.134 160.912 25.81C161.536 26.486 161.848 27.292 161.848 28.228C161.848 28.9733 161.666 29.6753 161.302 30.334C160.955 30.9753 160.478 31.556 159.872 32.076C159.352 32.5267 158.667 32.934 157.818 33.298C156.968 33.6447 156.05 33.922 155.062 34.13C154.074 34.338 153.094 34.442 152.124 34.442C151.309 34.442 150.538 34.3467 149.81 34.156C149.082 33.9827 148.484 33.6967 148.016 33.298ZM151.188 33.298C151.43 33.3327 151.673 33.3587 151.916 33.376C152.158 33.3933 152.401 33.402 152.644 33.402C153.493 33.402 154.325 33.2807 155.14 33.038C155.954 32.778 156.665 32.3707 157.272 31.816C157.896 31.2613 158.338 30.5333 158.598 29.632C158.754 29.1293 158.832 28.618 158.832 28.098C158.832 27.2833 158.624 26.5553 158.208 25.914C157.809 25.2553 157.176 24.874 156.31 24.77C156.119 24.822 155.833 24.8827 155.452 24.952C155.07 25.0213 154.672 25.082 154.256 25.134C153.84 25.186 153.484 25.212 153.19 25.212C152.912 25.212 152.774 25.1513 152.774 25.03C152.774 24.926 152.852 24.8047 153.008 24.666C153.164 24.51 153.337 24.38 153.528 24.276C153.718 24.1547 153.874 24.0853 153.996 24.068C154.308 24.016 154.672 23.99 155.088 23.99C155.313 23.99 155.538 23.9987 155.764 24.016C156.006 24.0333 156.258 24.0593 156.518 24.094C157.072 23.9207 157.532 23.6867 157.896 23.392C158.26 23.0973 158.572 22.82 158.832 22.56C159.248 22.1267 159.568 21.6327 159.794 21.078C160.019 20.506 160.132 19.9513 160.132 19.414C160.132 18.7033 159.958 18.1573 159.612 17.776C159.282 17.3773 158.84 17.0913 158.286 16.918C157.731 16.7447 157.133 16.6493 156.492 16.632C156.18 17.048 155.85 17.542 155.504 18.114C155.174 18.6687 154.862 19.2407 154.568 19.83C154.273 20.4193 154.013 20.9653 153.788 21.468C153.302 22.508 152.791 23.6433 152.254 24.874C151.734 26.1047 151.3 27.3007 150.954 28.462C150.78 28.9993 150.607 29.58 150.434 30.204C150.278 30.8107 150.2 31.3567 150.2 31.842C150.2 32.2233 150.269 32.544 150.408 32.804C150.546 33.064 150.806 33.2287 151.188 33.298ZM167.127 34.182C166.572 34.182 166.174 33.948 165.931 33.48C165.74 33.064 165.645 32.57 165.645 31.998C165.645 31.3567 165.74 30.646 165.931 29.866C166.122 29.086 166.382 28.2887 166.711 27.474C166.832 27.1793 166.988 26.8067 167.179 26.356C167.387 25.9053 167.63 25.4633 167.907 25.03C167.664 25.238 167.378 25.4113 167.049 25.55C166.72 25.6713 166.399 25.732 166.087 25.732C165.844 25.732 165.645 25.6973 165.489 25.628C165.35 25.9053 165.125 26.356 164.813 26.98C164.501 27.604 164.085 28.3407 163.565 29.19C163.513 29.2767 163.461 29.2767 163.409 29.19C163.374 29.086 163.357 28.9473 163.357 28.774C163.357 28.6353 163.374 28.488 163.409 28.332C163.444 28.176 163.496 28.0287 163.565 27.89C163.738 27.5607 163.912 27.2227 164.085 26.876C164.258 26.512 164.414 26.1913 164.553 25.914C164.692 25.6367 164.77 25.4633 164.787 25.394C164.475 25.238 164.241 25.0213 164.085 24.744C163.929 24.4493 163.851 24.1633 163.851 23.886C163.851 23.6087 163.912 23.3573 164.033 23.132C164.172 22.9067 164.371 22.7333 164.631 22.612C164.787 22.56 164.934 22.534 165.073 22.534C165.454 22.534 165.766 22.6553 166.009 22.898C165.992 22.9673 165.974 23.0453 165.957 23.132C165.957 23.2013 165.957 23.2793 165.957 23.366C165.957 23.9033 166.174 24.302 166.607 24.562C167.04 24.822 167.508 24.9173 168.011 24.848C168.254 24.5013 168.531 24.198 168.843 23.938C169.155 23.678 169.493 23.548 169.857 23.548C170.048 23.548 170.316 23.5567 170.663 23.574C171.027 23.5913 171.287 23.5913 171.443 23.574C171.339 23.6433 171.218 23.782 171.079 23.99C170.94 24.198 170.81 24.4147 170.689 24.64C170.568 24.8653 170.472 25.0387 170.403 25.16C169.935 26.0613 169.502 26.9627 169.103 27.864C168.704 28.748 168.401 29.5973 168.193 30.412C168.158 30.568 168.124 30.7153 168.089 30.854C168.072 30.9753 168.063 31.1053 168.063 31.244C168.063 31.764 168.236 32.024 168.583 32.024C168.826 32.024 169.172 31.8507 169.623 31.504C170.022 31.1747 170.377 30.8107 170.689 30.412C171.036 29.9613 171.365 29.476 171.677 28.956C171.989 28.436 172.258 27.9593 172.483 27.526C172.57 27.3873 172.63 27.318 172.665 27.318C172.769 27.318 172.821 27.474 172.821 27.786C172.821 27.9073 172.804 28.0547 172.769 28.228C172.734 28.4013 172.674 28.566 172.587 28.722C172.327 29.1553 172.032 29.632 171.703 30.152C171.374 30.6547 171.036 31.1487 170.689 31.634C170.464 31.946 170.143 32.3013 169.727 32.7C169.328 33.0987 168.895 33.4453 168.427 33.74C167.976 34.0347 167.543 34.182 167.127 34.182ZM177.604 33.636C176.807 34.052 175.966 34.26 175.082 34.26C174.337 34.26 173.643 34.078 173.002 33.714C172.361 33.35 171.927 32.7693 171.702 31.972C171.598 31.608 171.546 31.2267 171.546 30.828C171.546 30.1693 171.659 29.4933 171.884 28.8C172.127 28.0893 172.439 27.4393 172.82 26.85C173.409 25.9313 174.155 25.1687 175.056 24.562C175.957 23.9553 176.954 23.652 178.046 23.652C178.861 23.652 179.493 23.86 179.944 24.276C180.395 24.692 180.62 25.1773 180.62 25.732C180.62 26.3907 180.395 26.9713 179.944 27.474C179.511 27.9593 178.939 28.332 178.228 28.592C177.881 28.7133 177.509 28.8087 177.11 28.878C176.729 28.93 176.365 28.956 176.018 28.956C175.307 28.956 174.761 28.8607 174.38 28.67C174.051 29.5193 173.886 30.2993 173.886 31.01C173.886 31.6513 174.033 32.18 174.328 32.596C174.623 32.9947 175.091 33.194 175.732 33.194C176.269 33.194 176.798 33.0467 177.318 32.752C177.855 32.4573 178.349 32.0933 178.8 31.66C179.268 31.2267 179.658 30.8107 179.97 30.412C180.213 30.1173 180.421 29.84 180.594 29.58C180.767 29.32 180.949 29.0253 181.14 28.696C181.331 28.3493 181.556 27.9247 181.816 27.422C181.885 27.3007 181.946 27.24 181.998 27.24C182.102 27.24 182.154 27.3787 182.154 27.656C182.154 27.812 182.128 27.9853 182.076 28.176C182.041 28.3493 181.972 28.5313 181.868 28.722C181.625 29.1553 181.331 29.632 180.984 30.152C180.655 30.6547 180.317 31.14 179.97 31.608C179.658 32.024 179.303 32.4053 178.904 32.752C178.505 33.0987 178.072 33.3933 177.604 33.636ZM175.238 28.098C175.325 28.15 175.42 28.1847 175.524 28.202C175.628 28.2193 175.732 28.228 175.836 28.228C176.183 28.228 176.529 28.15 176.876 27.994C177.223 27.8207 177.517 27.6473 177.76 27.474C178.159 27.1967 178.497 26.8673 178.774 26.486C179.051 26.1047 179.207 25.6713 179.242 25.186C179.259 24.978 179.207 24.8047 179.086 24.666C178.982 24.51 178.791 24.432 178.514 24.432C178.375 24.432 178.202 24.458 177.994 24.51C177.717 24.5793 177.439 24.7093 177.162 24.9C176.885 25.0907 176.616 25.316 176.356 25.576C176.269 25.6627 176.113 25.836 175.888 26.096C175.68 26.3387 175.481 26.616 175.29 26.928C175.099 27.2227 175.004 27.4827 175.004 27.708C175.004 27.8987 175.082 28.0287 175.238 28.098ZM182.06 34.156C181.61 34.156 181.228 33.9393 180.916 33.506C180.622 33.0553 180.509 32.4313 180.578 31.634C180.613 31.1313 180.743 30.49 180.968 29.71C181.194 28.93 181.471 28.1413 181.8 27.344C182.147 26.5293 182.494 25.8447 182.84 25.29C183.291 24.5793 183.794 24.12 184.348 23.912C184.903 23.704 185.614 23.6 186.48 23.6C186.532 23.6 186.558 23.626 186.558 23.678C186.558 23.7647 186.506 23.86 186.402 23.964C186.16 24.172 185.882 24.536 185.57 25.056C185.276 25.5587 184.99 26.122 184.712 26.746C184.435 27.37 184.192 27.968 183.984 28.54C183.95 28.6613 183.872 28.8953 183.75 29.242C183.629 29.5887 183.516 29.97 183.412 30.386C183.308 30.7847 183.256 31.1573 183.256 31.504C183.256 31.7813 183.308 32.0153 183.412 32.206C183.516 32.3793 183.69 32.466 183.932 32.466C184.262 32.4487 184.617 32.2493 184.998 31.868C185.38 31.4693 185.761 30.9667 186.142 30.36C186.524 29.7533 186.888 29.138 187.234 28.514C187.581 27.8727 187.884 27.3007 188.144 26.798C188.422 26.278 188.621 25.914 188.742 25.706C189.002 25.29 189.28 24.9347 189.574 24.64C189.869 24.328 190.207 24.172 190.588 24.172C190.727 24.172 190.935 24.1807 191.212 24.198C191.49 24.198 191.75 24.198 191.992 24.198C192.252 24.198 192.426 24.1893 192.512 24.172C192.443 24.2067 192.339 24.2847 192.2 24.406C192.062 24.51 191.958 24.6313 191.888 24.77C191.611 25.3073 191.334 25.8707 191.056 26.46C190.779 27.0493 190.502 27.7427 190.224 28.54C190.19 28.6613 190.103 28.8953 189.964 29.242C189.843 29.5887 189.73 29.97 189.626 30.386C189.522 30.7847 189.47 31.1573 189.47 31.504C189.47 31.92 189.54 32.2147 189.678 32.388C189.834 32.5613 190.025 32.648 190.25 32.648C190.562 32.648 190.909 32.5267 191.29 32.284C191.689 32.024 192.044 31.712 192.356 31.348C192.894 30.724 193.318 30.074 193.63 29.398C193.96 28.7047 194.185 28.1847 194.306 27.838C194.272 27.6473 194.237 27.4393 194.202 27.214C194.185 26.9887 194.176 26.7633 194.176 26.538C194.176 26.226 194.202 25.9053 194.254 25.576C194.324 25.2467 194.419 24.926 194.54 24.614C194.766 24.0593 195.086 23.7213 195.502 23.6C195.572 23.5827 195.632 23.574 195.684 23.574C195.754 23.5567 195.823 23.548 195.892 23.548C196.222 23.548 196.438 23.6607 196.542 23.886C196.664 24.1113 196.724 24.38 196.724 24.692C196.724 25.004 196.69 25.316 196.62 25.628C196.551 25.9227 196.482 26.1567 196.412 26.33C196.291 26.6593 196.152 26.98 195.996 27.292C195.84 27.5867 195.693 27.8813 195.554 28.176C195.554 28.28 195.58 28.4273 195.632 28.618C195.823 29.45 196.248 29.866 196.906 29.866C197.305 29.866 197.721 29.6753 198.154 29.294C198.397 29.086 198.614 28.826 198.804 28.514C199.012 28.1847 199.194 27.8813 199.35 27.604C199.437 27.4653 199.489 27.4307 199.506 27.5C199.541 27.5693 199.558 27.682 199.558 27.838C199.558 28.0113 199.541 28.2107 199.506 28.436C199.472 28.6613 199.411 28.8433 199.324 28.982C199.064 29.4327 198.796 29.7793 198.518 30.022C198.241 30.2473 197.929 30.4293 197.582 30.568C197.444 30.62 197.296 30.6633 197.14 30.698C196.984 30.7327 196.837 30.75 196.698 30.75C196.282 30.75 195.901 30.6373 195.554 30.412C195.225 30.1693 194.982 29.7967 194.826 29.294L194.748 29.034C194.575 29.3287 194.376 29.6667 194.15 30.048C193.925 30.4293 193.708 30.776 193.5 31.088C193.31 31.4 193.162 31.6253 193.058 31.764C192.469 32.5093 191.828 33.0987 191.134 33.532C190.458 33.9653 189.739 34.182 188.976 34.182C188.89 34.182 188.803 34.182 188.716 34.182C188.63 34.182 188.543 34.1733 188.456 34.156C187.798 34.0693 187.356 33.7747 187.13 33.272C186.905 32.752 186.792 32.232 186.792 31.712C186.792 31.5213 186.801 31.3393 186.818 31.166C186.853 30.9753 186.879 30.8193 186.896 30.698C186.636 31.062 186.359 31.4 186.064 31.712C185.787 32.024 185.501 32.336 185.206 32.648C184.548 33.3067 183.958 33.7227 183.438 33.896C182.918 34.0693 182.459 34.156 182.06 34.156Z" fill="white"/>
</svg>
